/* XPM */
static char *_a4120383bcf4518ac39b58296e9d121DgyqOI1WP8LObKHN[] = {
/* columns rows colors chars-per-pixel */
"32 32 7 1 ",
"  c None",
". c black",
"X c #353535",
"o c #8C6F87",
"O c gray64",
"+ c gray80",
"@ c #ECECEC",
/* pixels */
"                                ",
"                                ",
"                                ",
"                                ",
"                                ",
"                                ",
"                                ",
"                                ",
"                                ",
"                                ",
"                                ",
"                                ",
"                                ",
"                                ",
"                    X X         ",
"                   XoXoX        ",
"                   XoXXoX       ",
"                   XooXoX       ",
"                    XoXoX       ",
"         XXXXX      XoXXX       ",
"   O  XXXXXXXXXX+    XoXXXX     ",
"  OOOXXXXXXXXXX++++++XXXXXXX    ",
"  OOOXXXXXXXXX+++++++XXXX@.++   ",
"   OOXXXXXXXX+++++++XXXXX..++   ",
"     XXXXXXXX+++++++++XXX++++   ",
"      XXXXXX+++++++++OXX++++    ",
"      XXXXX++++++++OOOO++++     ",
"      XXXX++++++OOO             ",
"       XXX++++++OO              ",
"         X++++++OO              ",
"          ++++ +OO              ",
"                OOO             "
};
