/* XPM */
static char *_c74e2b580d74b318d50b8f422294747MjwBEIDX7CNHPVqc[] = {
/* columns rows colors chars-per-pixel */
"32 32 7 1 ",
"  c None",
". c black",
"X c #353535",
"o c #8C6F87",
"O c gray64",
"+ c gray80",
"@ c #ECECEC",
/* pixels */
"                                ",
"                                ",
"                                ",
"                                ",
"                                ",
"                                ",
"                                ",
"                                ",
"                                ",
"                                ",
"                                ",
"                                ",
"                   X X          ",
"                  XoXoX         ",
"                  XoXXoX        ",
"                  XooXoX        ",
"                   XoXoX        ",
"                   XoXXX        ",
"                    XoXXXX      ",
"       XXXXXXX      XXXXXXX     ",
"      XXXXXXXXXX++++XXXX@.++    ",
"   OOXXXXXXXXXX++++XXXXX..++    ",
"  OOOXXXXXXXXX+++++++XXX++++    ",
"   OOXXXXXXXX+++++++OXX++++     ",
"     XXXXXXXX+++++OOOO++++      ",
"      XXXXXX++++++OOO           ",
"      XXXXX++++++OOO            ",
"       XXX++++++OO              ",
"        XX++++++O               ",
"         X++++++                ",
"          OOO++O                ",
"             ++                 "
};
