/* XPM */
static char *result[] = {
/* columns rows colors chars-per-pixel */
"32 32 7 1 ",
"  c black",
". c #353535",
"X c #8C6F87",
"o c gray64",
"O c gray80",
"+ c #ECECEC",
"@ c None",
/* pixels */
"@@@@@@@@@@@@@@@@@@@@@@@@@@@@@@@@",
"@@@@@@@@@@@@@@@@@@@@@@@@@@@@@@@@",
"@@@@@@@@@@@@@@@@@@@@@@@@@@@@@@@@",
"@@@@@@@@@@@@@@@@@@@@@@@@@@@@@@@@",
"@@@@@@@@@@@@@@@@@@@@@@@@@@@@@@@@",
"@@@@@@@@@@@@@@@@@@@@@@@@@@@@@@@@",
"@@@@@@@@@@@@@@@@@@@@@@@@@@@@@@@@",
"@@@@@@@@@@@@@@@@@@@@@@@@@@@@@@@@",
"@@@@@@@@@@@@@@@@@@@@@@@@@@@@@@@@",
"@@@@@@@@@@@@@@@@@@@.@.@@@@@@@@@@",
"@@@@@@@@@@@@@@@@@@.X.X.@@@@@@@@@",
"@@@@@@@@@@@@@@@@@@.X..X.@@@@@@@@",
"@@@@@@@@@@@@@@@@@@.XX.X.@@@@@@@@",
"@@@@@@@@@@@@@@@@@@@.X.X.@@@@@@@@",
"@@@@@@@@@@@@@@@@@@@.X...@@@@@@@@",
"@@@@@@@@@@@@@@@@@@@@.X....@@@@@@",
"@@@@@@@@@@@@@@@@@@@@.......@@@@@",
"@@@@@@@.......@@@@@O....+ OO@@@@",
"@@@@@@.......OOOOOO.....  OO@@@@",
"@@o@@........OOOOOOOO...OOOO@@@@",
"@oo@@.......OOOOOOOOO..OOOO@@@@@",
"@ooo.......OOOOOOOOOOOOOOO@@@@@@",
"@ooo......OOOOOOOOOO@@@@@@@@@@@@",
"@@oo......OOOOOOOOOOO@@@@@@@@@@@",
"@@@@.....OOOOOOOOOOOOO@@@@@@@@@@",
"@@@@@....OOOOoOOOO@@OO@@@@@@@@@@",
"@@@@@@...OOOO@@OOO@@@O@@@@@@@@@@",
"@@@@@@@..OO@@@OOO@@@@@@@@@@@@@@@",
"@@@@@@@@.OO@@@@@@@@@@@@@@@@@@@@@",
"@@@@@@@@@OOO@@@@@@@@@@@@@@@@@@@@",
"@@@@@@@@@@OOO@@@@@@@@@@@@@@@@@@@",
"@@@@@@@@@@@@@@@@@@@@@@@@@@@@@@@@"
};
