/* XPM */
static char *result[] = {
/* columns rows colors chars-per-pixel */
"32 32 7 1 ",
"  c black",
". c #353535",
"X c #8C6F87",
"o c gray64",
"O c gray80",
"+ c #ECECEC",
"@ c None",
/* pixels */
"@@@@@@@@@@@@@@@@@@@@@@@@@@@@@@@@",
"@@@@@@@@@@@@@@@@@@@@@@@@@@@@@@@@",
"@@@@@@@@@@@@@@@@@@@@@@@@@@@@@@@@",
"@@@@@@@@@@@@@@@@@@@@@@@@@@@@@@@@",
"@@@@@@@@@@@@@@@@@@@@@@@@@@@@@@@@",
"@@@@@@@@@@@@@@@@@@@@@@@@@@@@@@@@",
"@@@@@@@@@@@@@@@@@@@@@@@@@@@@@@@@",
"@@@@@@@@@@@@@@@@@@@@@@@@@@@@@@@@",
"@@@@@@@@@@@@@@@@@@@@@@@@@@@@@@@@",
"@@@@@@@@@@@@@@@@@@@@@@@@@@@@@@@@",
"@@@@@@@@@@@@@@@@@@@@@@@.@.@@@@@@",
"@@@@@@@@@@@@@@@@@@@@@@.X.X.@@@@@",
"@@@@@@@@@@@@@@@@@@@@@@.X..X.@@@@",
"@@@@@@@ooo@@@@@@@@@@@@.XX.X.@@@@",
"@@@@@@ooo@@.....@@@@@@@.X.X.@@@@",
"@@@@@@ooo.........@@@@@.X...@@@@",
"@@@@@@oo............@@@@.X....@@",
"@@@@@@@.............OOOO.......@",
"@@@@@@......OOOOOOOOOOOO....+ OO",
"@@@@@....OOOOOOOOOOOOOO.....  OO",
"@@@@OOOOOOOOOOOOOOOOOOOOO...OOOO",
"@@@@OOOOOOOOooOOOOOOOOOOO..OOOOO",
"@@@OOO@ooooo@@oooOOOOOOOOOOOOOO@",
"@@OOO@@@@@@@@@@@oooOOOOOOoo@@@@@",
"@@OO@@@@@@@@@@@@@@@oooOOoooo@@@@",
"@@O@@@@@@@@@@@@@@@@@@@OO@oooo@@@",
"@@@@@@@@@@@@@@@@@@@@@@OOO@@ooo@@",
"@@@@@@@@@@@@@@@@@@@@@@@OO@@@ooo@",
"@@@@@@@@@@@@@@@@@@@@@@@OOO@@@@@@",
"@@@@@@@@@@@@@@@@@@@@@@@@OOO@@@@@",
"@@@@@@@@@@@@@@@@@@@@@@@@@@@@@@@@",
"@@@@@@@@@@@@@@@@@@@@@@@@@@@@@@@@"
};
