/* XPM */
static char *result[] = {
/* columns rows colors chars-per-pixel */
"32 32 7 1 ",
"  c black",
". c #353535",
"X c #8C6F87",
"o c gray64",
"O c gray80",
"+ c #ECECEC",
"@ c None",
/* pixels */
"@@@@@@@@@@@@@@@@@@@@@@@@@@@@@@@@",
"@@@@@@@@@@@@@@@@@@@@@@@@@@@@@@@@",
"@@@@@@@@@@@@@@@@@@@@@@@@@@@@@@@@",
"@@@@@@@@@@@@@@@@@@@@@@@@@@@@@@@@",
"@@@@@@@@@@@@@@@@@@@@@@@@@@@@@@@@",
"@@@@@@@@@@@@@@@@@@@@@@@@@@@@@@@@",
"@@@@@@@@@@@@@@@@@@@@@@@@@@@@@@@@",
"@@@@@@@@@@@@@@@@@@@@@@@@@@@@@@@@",
"@@@@@@@@@@@@@@@@@@@@@@@@@@@@@@@@",
"@@@@@@@@@@@@@@@@@@@@@@@@@@@@@@@@",
"@@@@@@@@@@@@@@@@@@@@@@@@@@@@@@@@",
"@@@@@@@@@@@@@@@@@@@@@@@@@@@@@@@@",
"@@@@@@@@@@@@@@@@@@@@@@@@@@@@@@@@",
"@@@@@@@@@@@@@@@@@@@@@@@@@@@@@@@@",
"@@@@@ooo@@@@@@@@@@@@@@@.@.@@@@@@",
"@@@@ooo@@...@@@@@@@@@@.X.X.@@@@@",
"@@@@ooo........@@@@@@@.X..X.@@@@",
"@@@@oo...........@@@@@.XX.X.@@@@",
"@@@@@o.............@@@@.X.X.@@@@",
"@@@@@........OOOOOOO@@@.X...@@@@",
"@@@@@......OOOOOOOOOOO@@.X....@@",
"@@@@....OOOOOOOOOOOOOOOO.......@",
"@@@@OOOOOOOOOOOOOOOOOOOO....+ OO",
"@@OOOOOOOOOooOOOOOOOOOO.....  OO",
"@OOOOOOOO@@@@@oOOOOOOOOOO...OOOO",
"OOOOOOO@@@@@@@oooOOOOOOOo..OOOO@",
"OO@@@@@@@@@@@@@@oOOO@oooooOOOO@@",
"O@@@@@@@@@@@@@@@OOO@@@ooo@@@@@@@",
"@@@@@@@@@@@@@@@@OOO@@@@ooo@@@@@@",
"@@@@@@@@@@@@@@@@OOO@@@@@ooo@@@@@",
"@@@@@@@@@@@@@@@@@OO@@@@@@ooo@@@@",
"@@@@@@@@@@@@@@@@@@@@@@@@@@@@@@@@"
};
