/* XPM */
static char *result[] = {
/* columns rows colors chars-per-pixel */
"32 32 7 1 ",
"  c black",
". c #353535",
"X c #8C6F87",
"o c gray64",
"O c gray80",
"+ c #ECECEC",
"@ c None",
/* pixels */
"@@@@@@@@@@@@@@@@@@@@@@@@@@@@@@@@",
"@@@@@@@@@@@@@@@@@@@@@@@@@@@@@@@@",
"@@@@@@@@@@@@@@@@@@@@@@@@@@@@@@@@",
"@@@@@@@@@@@@@@@@@@@@@@@@@@@@@@@@",
"@@@@@@@@@@@@@@@@@@@@@@@@@@@@@@@@",
"@@@@@@@@@@@@@@@@@@@@@@@@@@@@@@@@",
"@@@@@@@@@@@@@@@@@@@@@@@@@@@@@@@@",
"@@@@@@@@@@@@@@@@@@@@@@@@@@@@@@@@",
"@@@@@@@@@@@@@@@@@@@@@@@@@@@@@@@@",
"@@@@@@@@@@@@@@@@@@@@@@@@@@@@@@@@",
"@@@@@@@@@@@@@@@@@@@@@@@@@@@@@@@@",
"@@@@@@@@@@@@@@@@@@@@@@@@@@@@@@@@",
"@@@@@@@@@@@@@@@@@@@@@@@@@@@@@@@@",
"@@@@@@@@@@@@@@@@@@@@@@@@@@@@@@@@",
"@@@@@@@@@@@@@@@@@@@@@@@@@@@@@@@@",
"@@@@@@ooo@@@@@@@@@@@@@@@@@@@@@@@",
"@@@@@ooo@@@@@@@@@@@@@.@.@@@@@@@@",
"@@@@@ooo......@@@@@@.X.X.@@@@@@@",
"@@@@@oo........@@@@@.X..X.@@@@@@",
"@@@@@@o.........@@@@.XX.X.@@@@@@",
"@@@@@@...........@@@@.X.X.@@@@@@",
"@@@@@..............@@.X...@@@@@@",
"@@@@@......OOOOOOOOOO@.X....@@@@",
"@@@@@....OOOOOOOOOOOOO.......@@@",
"@@@@@@.OOOOOOOOOOOOOOO....+ OO@@",
"@@@@@@@OOOOOOOOOOOOOO.....  OO@@",
"@@@@@@@@OOOOOOOOOOOOOOO...OOOO@@",
"@@@@@@@@OOooooOOOOOOOOo..OOOO@@@",
"@@@@@@@@OOOooooOOOOOooooOOOO@@@@",
"@@@@@@@@@OOOoooOOooooo@@@@@@@@@@",
"@@@@@@@@@@OOOoOOO@ooo@@@@@@@@@@@",
"@@@@@@@@@@@OOO@@@@@ooo@@@@@@@@@@"
};
