/* XPM */
static char *_1230c08662943b1c4843043e5ad4dd8DXsq6A5LoThan2GT[] = {
/* columns rows colors chars-per-pixel */
"16 16 2 1 ",
"  c #3D425D",
". c #4E6882",
/* pixels */
"................",
".......      ...",
"....            ",
"........      ..",
".          .....",
"...          ...",
".........      .",
"..           ...",
".       ........",
"....           .",
"..           ...",
".........      .",
"...           ..",
"......      ....",
"................",
"................"
};
