/* XPM */
static char *ed61e1e80e7847e6edb187a1cb9c61ffjShPZVMuQ2mGkQWe[] = {
/* columns rows colors chars-per-pixel */
"16 16 2 1 ",
"  c #3D425D",
". c #4E6882",
/* pixels */
"................",
"......  ........",
"...      .......",
".             ..",
".....          .",
"....         ...",
"..       .......",
"....   .........",
"..........    ..",
"........        ",
"....          ..",
"..       .......",
"...   ..........",
"..          ....",
".......    .....",
"................"
};
