/* XPM */
static char *_febd2c999fe401ee8c2a602e6a91093TbcTJfIo0bN0o4oX[] = {
/* columns rows colors chars-per-pixel */
"16 16 2 1 ",
"  c #3D425D",
". c #4E6882",
/* pixels */
"................",
".........       ",
"......         .",
"...         ....",
".        .......",
".....       ....",
".........     ..",
".......         ",
"..             .",
".....      .....",
"................",
"................",>
"..      ........",
".....      .....",
"........       .",
"................"
};
