/* XPM */
static char *result[] = {
/* columns rows colors chars-per-pixel */
"32 32 6 1 ",
"  c black",
". c #353535",
"X c #8C6F87",
"o c gray64",
"O c gray80",
"+ c None",
/* pixels */
"++++++++++++++++++++++++++++++++",
"++++++++++++++++++++++++++++++++",
"++++++++++++++++++++++++++++++++",
"++++++++++++++++++++++++++++++++",
"++++++++++++++++++++++++++++++++",
"++++++++++++++++++++++++++++++++",
"++++++++++++++++++++++++++++++++",
"++++++++++++++++++++++++++++++++",
"++++++++++++++++++++++++++++++++",
"++++++++++++++++++++++++++++++++",
"++++++++++++++++++++++++++++++++",
"++++++++++++++++++++++++++++++++",
"++++++++++++++++++++++++++++++++",
"++++++++++++++++++++++++++++++++",
"++++++++++++++++++++++++++++++++",
"++++++++++++++++++++++++++++++++",
"++++++++++++++++++++++++++++++++",
"+++++++++++++.+.++++++++++++++++",
"++++++++++++.X.X.+++++++++++++++",
"+++++++++++.X..X.+++++++++++++++",
"+++++++++++.X.XX.+++++++++++++++",
"+++++++++++.X.X.++++++++++++++++",
"+++++++++++...X.++++++++++++++++",
"+++++++++....X.++++...++++++++++",
"++++++++.......+++.....+++++++++",
"+++++++OO......++.......++O+++++",
"+++++++OO  .....OOOO.....ooO++++",
"+++++++OOOO....OOOOOO....ooo++++",
"++++++++OOOO..OOOOOOOO...oo+++++",
"+++++++++OOOOOOOOOOooOO.o+++++++",
"++++++++++OOOOOOOOoOOOOO++++++++",
"++++++++OOOooOOOOoOOOOO+++++++++"
};
