/* XPM */
static char *result[] = {
/* columns rows colors chars-per-pixel */
"32 32 29 1 ",
"  c #160F16",
". c #191A17",
"X c #1C181B",
"o c #1D1C1D",
"O c #1E1C1E",
"+ c #2E130D",
"@ c #20191D",
"# c #211A1C",
"$ c #221A1F",
"% c #1D1B20",
"& c #1F1B20",
"* c #211920",
"= c #221A21",
"- c #221B23",
"; c #221B26",
": c #3A5339",
"> c #46703C",
", c #416D41",
"< c #466C42",
"1 c #A45D35",
"2 c #B26236",
"3 c #C06C3C",
"4 c #C06E3F",
"5 c #4D804C",
"6 c #5E9F5D",
"7 c #609F5F",
"8 c #DD814D",
"9 c #E18B59",
"0 c None",
/* pixels */
"00000000000000000000000000000000",
"00000000000000000000000000000000",
"00000000000000000000000000000000",
"00000000000000000000000000000000",
"00000000000000000000000000000000",
"00000000000000000000000000000000",
"00000000000000000000000000000000",
"00000000000000000000000000000000",
"00000000000000000%00000000000000",
"0000000000000000%5%0%%0000000000",
"0000000000000000%7%%67%000000000",
"00000000000000000%5,6,%000000000",
"00000000000000000%:7*.0000000000",
"000000000000000& ,>,,7*000000000",
"00000000000000@417<::o0000000000",
"0000000000000&284157o00000000000",
"000000000000O289841&000000000000",
"00000000000X289832&0000000000000",
"0000000000&289832&00000000000000",
"000000000&289832=000000000000000",
"000000000&89832-0000000000000000",
"00000000&2832&&00000000000000000",
"00000000&32+#0000000000000000000",
"00000000&;$000000000000000000000",
"00000000000000000000000000000000",
"00000000000000000000000000000000",
"00000000000000000000000000000000",
"00000000000000000000000000000000",
"00000000000000000000000000000000",
"00000000000000000000000000000000",
"00000000000000000000000000000000",
"00000000000000000000000000000000"
};
