/* XPM */
static char *_bf3ac8969aa4d1a864393fc18acb55eTyLR8bn9b2Y8dwMG[] = {
/* columns rows colors chars-per-pixel */
"32 32 91 1 ",
"  c None",
". c #34291A",
"X c #232B27",
"o c #3E2A22",
"O c #27312C",
"+ c #4A0313",
"@ c #5D0515",
"# c #5D091B",
"$ c #690718",
"% c #69091D",
"& c #6D081C",
"* c #720A1E",
"= c #730A1E",
"- c #740A1F",
"; c #760B1F",
": c #770B1F",
"> c #72111A",
", c #780A20",
"< c #7B0A20",
"1 c #7C0A22",
"2 c #840C1E",
"3 c #820B21",
"4 c #820D22",
"5 c #860C21",
"6 c #860D22",
"7 c #810D24",
"8 c #890D24",
"9 c #8A0F26",
"0 c #8F0F24",
"q c #8E0F25",
"w c #920F24",
"e c #930F24",
"r c #8A1024",
"t c #8C1024",
"y c #8F1125",
"u c #911024",
"i c #931127",
"p c #981326",
"a c #9D1328",
"s c #A21529",
"d c #A5152B",
"f c #A91529",
"g c #AA162A",
"h c #AF152A",
"j c #AC172B",
"k c #AE162A",
"l c #AF162C",
"z c #AE162D",
"x c #B0152A",
"c c #B2162B",
"v c #B1162C",
"b c #B0172C",
"n c #BA162C",
"m c #B7192F",
"M c #BA182E",
"N c #BB182F",
"B c #B91A2F",
"V c #C4182F",
"C c #C01A31",
"Z c #C21A31",
"A c #C41A30",
"S c #C51A31",
"D c #C51B32",
"F c #C81931",
"G c #CD1930",
"H c #CD1B33",
"J c #CA1C34",
"K c #D21932",
"L c #D51D36",
"P c #D91D36",
"I c #DF1D37",
"U c #E71B35",
"Y c #D5213A",
"T c #EE213D",
"R c #FA2643",
"E c #FB677F",
"W c #3A9959",
"Q c #4B9D4C",
"! c #4C9E4C",
"~ c #54A351",
"^ c #54A653",
"/ c #6CB553",
"( c #4DA965",
") c #5FBD69",
"_ c #62BB6D",
"` c #64BE6F",
"' c #66BF71",
"] c #73C76F",
"[ c #66C073",
"{ c #FEBCC6",
"} c #FEDADF",
/* pixels */
"                                ",
"                                ",
"                                ",
"                                ",
"                    `'[         ",
"                   _/~^         ",
"                  )]!OO..       ",
"                 (WQO...        ",
"                ......X         ",
"               .....            ",
"               oo               ",
"         @&$w  ooSww#           ",
"        wRRRTooooUUUU-          ",
"       w2RRRR###+UUUU--         ",
"      w-}}}RRRRRRTTUUU--        ",
"     w>{{{ERRRTTTTUTUYY-%       ",
"     nURRRRRTTTTTUUUUYY-%       ",
"     nYRRTTTTTTUUUUUUYY-%       ",
"     nYUUUUUUUUUUUUUYSS-%       ",
"     nYUTUUUUUUUUUUUUSS-%       ",
"     nSUUUUUUUUUUUUKVxw-%       ",
"     wwUUUUUUUUUUUUFvw5-%       ",
"     wwUUUUUUUUUUPGNaiw-%       ",
"     --fGUYYYYYILJNvi5--%       ",
"     --tfNSYZSSSZmsi-*%%-       ",
"      %-0swjjxjlldw5**%%        ",
"       --0pppipi093--%-         ",
"        %-tr4tt971,,-%          ",
"         ------------           ",
"                                ",
"                                ",
"                                "
};
