/* XPM */
static char *_e8d1e3408114fdd85caf0d49995a425pe6p5rBO8uvgtmmg[] = {
/* columns rows colors chars-per-pixel */
"32 32 234 2 ",
"   c None",
".  c #0D0C13",
"X  c #0A041F",
"o  c #08071E",
"O  c #02091C",
"+  c #020C1E",
"@  c #0D0D1B",
"#  c #0D0C1E",
"$  c #140F1E",
"%  c #011A16",
"&  c #01141E",
"*  c #011A18",
"=  c #01191E",
"-  c #131313",
";  c #01201C",
":  c #01231D",
">  c #1C211D",
",  c #023A1C",
"<  c #012723",
"1  c #113C2A",
"2  c #033831",
"3  c #043B30",
"4  c #033C30",
"5  c #083F33",
"6  c #2D2B37",
"7  c #2C3034",
"8  c #15491F",
"9  c #045122",
"0  c #054232",
"q  c #0D4636",
"w  c #0C4C32",
"e  c #184F39",
"r  c #0A5738",
"t  c #15553A",
"y  c #23552C",
"u  c #29653C",
"i  c #0C5745",
"p  c #165B42",
"a  c #1B6641",
"s  c #1F7F55",
"d  c #2C674F",
"f  c #765E63",
"g  c #76576B",
"h  c #677A6B",
"j  c #7F6779",
"k  c #835E68",
"l  c #85616D",
"z  c #83666C",
"x  c #806876",
"c  c #916A77",
"v  c #9C717F",
"b  c #36892C",
"n  c #349946",
"m  c #3B964C",
"M  c #2E8051",
"N  c #34995A",
"B  c #3A9C67",
"V  c #488A47",
"C  c #4AB95D",
"Z  c #5BB85B",
"A  c #469D65",
"S  c #57AD69",
"D  c #5FBB64",
"F  c #4EB274",
"G  c #59C76D",
"H  c #53C868",
"J  c #70C06A",
"K  c #7ED86E",
"L  c #61D175",
"P  c #65D078",
"I  c #867786",
"U  c #917683",
"Y  c #987683",
"T  c #937A87",
"R  c #927B87",
"E  c #63B584",
"W  c #71DB85",
"Q  c #858E85",
"!  c #9D8285",
"~  c #9E8684",
"^  c #998887",
"/  c #A58987",
"(  c #A1888D",
")  c #A7898D",
"_  c #AA8E8B",
"`  c #AF918E",
"'  c #A08692",
"]  c #A78C9B",
"[  c #AD9391",
"{  c #AA9792",
"}  c #AE9492",
"|  c #A49A97",
" . c #AD9A96",
".. c #AE9C95",
"X. c #A6979A",
"o. c #B59793",
"O. c #B49596",
"+. c #B79B97",
"@. c #B99B96",
"#. c #B9A185",
"$. c #BAAA8E",
"%. c #ACA097",
"&. c #BBA19F",
"*. c #9D9DA0",
"=. c #AB94A4",
"-. c #A2A6A6",
";. c #ADACAC",
":. c #B6A7A3",
">. c #BAA5A3",
",. c #BEA7A4",
"<. c #BDA8A2",
"1. c #BBAFA6",
"2. c #BFA7AB",
"3. c #B3A9A8",
"4. c #BFA9A8",
"5. c #A2B1A3",
"6. c #BEBAAB",
"7. c #BFAFB6",
"8. c #C0A59D",
"9. c #C0AC9C",
"0. c #CBAF9D",
"q. c #CBBC9E",
"w. c #C2AEA5",
"e. c #C1AEA7",
"r. c #C4AFA7",
"t. c #C6AFAA",
"y. c #C8ACAB",
"u. c #C8A8AC",
"i. c #C2B0A7",
"p. c #C4B2A7",
"a. c #C9B2A8",
"s. c #CBB2AD",
"d. c #C9B7AD",
"f. c #D2BAAF",
"g. c #C0AAB5",
"h. c #C8B5B0",
"j. c #CBB6B0",
"k. c #CAB8B1",
"l. c #CCBAB3",
"z. c #CCBEB7",
"x. c #CCBFBF",
"c. c #D0B0B6",
"v. c #D2BEB1",
"b. c #D2BDB4",
"n. c #89CC8B",
"m. c #8BEA9B",
"M. c #99EBA3",
"N. c #DFC5AC",
"B. c #D4C7B4",
"V. c #DDC9B6",
"C. c #D3C1B9",
"Z. c #D9C6BD",
"A. c #DBC9BE",
"S. c #DAD2BF",
"D. c #E0C6A6",
"F. c #C5CBC0",
"G. c #D2CCC3",
"H. c #D9CAC0",
"J. c #DDC9C2",
"K. c #D9CDC3",
"L. c #DACEC2",
"P. c #DBD0C3",
"I. c #DDD3C5",
"U. c #DED8C6",
"Y. c #DED9C7",
"T. c #DFD7C8",
"R. c #DED5CE",
"E. c #DDDACD",
"W. c #D3DEDF",
"Q. c #E2D8C6",
"!. c #E1D5CC",
"~. c #E0DBC8",
"^. c #E2DBCB",
"/. c #E6DBCA",
"(. c #E4DCC9",
"). c #E2DACF",
"_. c #E5DACD",
"`. c #E6DACD",
"'. c #E5DFCD",
"]. c #E1D6D1",
"[. c #E5D5D4",
"{. c #E4D9D1",
"}. c #E3E0CD",
"|. c #F1E9CC",
" X c #E8E2D3",
".X c #EFE4D2",
"XX c #EAE1D5",
"oX c #E9E3D5",
"OX c #EBE2D5",
"+X c #E9E1D6",
"@X c #EBE6D4",
"#X c #EAE4D6",
"$X c #EBE4D7",
"%X c #EAE5D7",
"&X c #ECE5D8",
"*X c #EFE9DA",
"=X c #EEECDB",
"-X c #F1EADC",
";X c #F1EFDF",
":X c #F8F3D7",
">X c #F6F3DE",
",X c #F2F2E1",
"<X c #FAF3E1",
"1X c #FDF8E4",
"2X c #FEF9E7",
"3X c #F8F8E9",
"4X c #F9FBE9",
"5X c #FBF9EA",
"6X c #FEF9EB",
"7X c #FCFAEB",
"8X c #FEFCEA",
"9X c #FFFBEC",
"0X c #FFFCEF",
"qX c #FCFEEF",
"wX c #FAF9F0",
"eX c #FEFBF0",
"rX c #FFFAF1",
"tX c #FFFBF3",
"yX c #FAFCF2",
"uX c #FDFCF0",
"iX c ivory",
"pX c #F9FAF7",
"aX c #FCFBF4",
"sX c #FDFBF7",
"dX c #FEFDF5",
"fX c #FFFDF5",
"gX c #FCFCF7",
"hX c #FDFEF7",
"jX c #FBF8F9",
"kX c #FDFDF9",
"lX c #FFFDF8",
"zX c #FEFDF9",
"xX c #FFFDF9",
"cX c #FFFEFA",
/* pixels */
"                                                                ",
"                                                                ",
"                                                                ",
"                                                                ",
"                                                                ",
"                                                                ",
"                          > > > > >                             ",
"                      : > *.-.W.F.;.> :                         ",
"            : :   : : pX7X7XE.Y.^.G.tX].: >   : :               ",
"          : i r : 2.0XsX0X7X5X;X=X8X9X3.X.g > w r :             ",
"          < i : Q [.K.q..XtXuX0X5X$XS.tXj.j I : w r :           ",
"        : i i : 0XA.B.N.D.-XdXdX5X$.^.dXk.x 6.6.: r :           ",
"        : w : ] dXdXlX#./.oXoX_. X'.lX{.Z.<.b.Q Q : : :         ",
"      : r : : c.:X0.P.yXoX$XoX$X}.>X2X!.e.c v g.Q : = d :       ",
"      : b & * 1.|.a.).sXQ.uX&X$XY.2X*Xz.s.k l 7.Q : : i :       ",
"      : H y E : =.lXwXdXH.V.I.T.,X<X_.C.y.O.u.Q o J , m :       ",
"      : s n H n # x.4.>.J.d.K.9.(.v.f.8.` Y ' : C A i 3 :       ",
"      : N H B n C 6 - ..r.lXR.dX ./ _ [ } 7 h n.K A i 3 :       ",
"      : Z C G G C $ . e.t.lXjXlX( ! ) ~ { + % P D r i 3 :       ",
"        : V C G W M.m.@ ,.l.p.i.j.f z ^ : s F S u 3 : :         ",
"        : 8 9 C L F G G : %.o.+.5.| 5.: s B F i e 1 : :         ",
"        : 2 r C C N N n : :.@.&.U 5.5.: C M i p 5 : : :         ",
"          : : i N r s s s : : R R : : s i a t 0 i o :           ",
"              : r r r r s r r O r r s i r 3 3 : :               ",
"                : 4 i i i r q : i i r i r : : :                 ",
"                  : : i i 3 i : r 3 3 3 3 : :                   ",
"                    : : : : 3 i 3 : : : :                       ",
"                          : : : : : :                           ",
"                                                                ",
"                                                                ",
"                                                                ",
"                                                                "
};
