/* XPM */
static char *_870f4303dd04ab1d0954cce5e871090EPtFbklcUu5h6QBK[] = {
/* columns rows colors chars-per-pixel */
"32 32 136 2 ",
"   c None",
".  c #011E14",
"X  c #01201B",
"o  c #011E20",
"O  c #012228",
"+  c #51170F",
"@  c #5B0510",
"#  c #62201A",
"$  c #044A2D",
"%  c #065F2B",
"&  c #135828",
"*  c #114136",
"=  c #1E5033",
"-  c #1A5638",
";  c #1C603A",
":  c #225B40",
">  c #0C6851",
",  c #2A7952",
"<  c #2B765F",
"1  c #96251D",
"2  c #96152A",
"3  c #9E112B",
"4  c #9E1528",
"5  c #A71927",
"6  c #A01335",
"7  c #A61B34",
"8  c #A41639",
"9  c #A9153B",
"0  c #AD1B3C",
"q  c #B91A33",
"w  c #B12625",
"e  c #BD272B",
"r  c #A53F2E",
"t  c #B13823",
"y  c #BC3739",
"u  c #C92F21",
"i  c #D12527",
"p  c #D52927",
"a  c #D0252B",
"s  c #DB252B",
"d  c #CE3022",
"f  c #D7372B",
"g  c #C32030",
"h  c #C42633",
"j  c #CB3A3A",
"k  c #D43230",
"l  c #E3332A",
"z  c #E53F2F",
"x  c #F43C2B",
"c  c #DF422A",
"v  c #DA512B",
"b  c #D85D28",
"n  c #CE4338",
"m  c #DA4233",
"M  c #D24D39",
"N  c #E24329",
"B  c #E74129",
"V  c #E14B2A",
"C  c #EF482C",
"Z  c #F6422C",
"A  c #F24E2B",
"S  c #F14C2C",
"D  c #F34E2D",
"F  c #EB542F",
"G  c #EC562E",
"H  c #EB5E2D",
"J  c #F2582D",
"K  c #F15C2F",
"L  c #E34132",
"P  c #E35631",
"I  c #E15937",
"U  c #EF5D30",
"Y  c #F75537",
"T  c #F6612F",
"R  c #FB662F",
"E  c #FC672F",
"W  c #F96D2F",
"Q  c #EF6533",
"!  c #F36631",
"~  c #F46731",
"^  c #F46A30",
"/  c #FB6E30",
"(  c #FB6F30",
")  c #FD6C30",
"_  c #FC6C31",
"`  c #EF7532",
"'  c #E37339",
"]  c #F87031",
"[  c #FA7231",
"{  c #FB7231",
"}  c #FD7231",
"|  c #FC7532",
" . c #FD7637",
".. c #F97933",
"X. c #FC7833",
"o. c #FA7A35",
"O. c #F47F3C",
"+. c #B21841",
"@. c #C64440",
"#. c #E96847",
"$. c #F96A4A",
"%. c #EF7345",
"&. c #F47741",
"*. c #FD7F40",
"=. c #FC7F50",
"-. c #31874E",
";. c #34904D",
":. c #328A5E",
">. c #3EA154",
",. c #41A664",
"<. c #47AC62",
"1. c #4BAF66",
"2. c #52B56D",
"3. c #43AB77",
"4. c #56BA79",
"5. c #69B378",
"6. c #F78434",
"7. c #F78837",
"8. c #F48939",
"9. c #FC8838",
"0. c #ED8441",
"q. c #F98140",
"w. c #FB8842",
"e. c #FD8842",
"r. c #FA8F45",
"t. c #FD9744",
"y. c #FD8856",
"u. c #FA8D59",
"i. c #F49857",
"p. c #FD9E52",
"a. c #FDAF63",
"s. c #61C384",
"d. c #FECF8D",
"f. c #F2DCAA",
"g. c #FEE3A7",
"h. c #FCE5AB",
/* pixels */
"                              o s.o                             ",
"                            . 5.s.: X                           ",
"                          X <.4.2.; < X                         ",
"                            o 1.2.- X                           ",
"                      O       o 1.o o     o                     ",
"                    X :., o   o >.* o     , o                   ",
"                      o ;., o X <.o o o , , o                   ",
"                        o -.-.-.= X % ,., o                     ",
"                          o $ o * X X & o                       ",
"                            o > 3.o o o                         ",
"                          # + + + + + +                         ",
"                          1 1 1 1 1 1 1                         ",
"                        # 8.i.f.6.N V Q +                       ",
"                      # ` g.h.7.O.^ G L +.#                     ",
"                      # ~ d.a.r...{ F k 6 #                     ",
"                      # ! q.w.o.{ ) ) g 1 #                     ",
"                      # K  .{ ( ( ) ) f 1 #                     ",
"                      + J | T } E ) W H 9 #                     ",
"                        1 S l C b i q 1 1 #                     ",
"                        # 1 y.p.' =.$.8 #                       ",
"                        # 1 u.t.R S Y 0 +                       ",
"                          # *.0.U m j 7 +                       ",
"                          # e.&.%.#.n y +                       ",
"                          # z Z x s h 1 #                       ",
"                          + t P I M w 1 +                       ",
"                          + e u d 5 1 1 +                       ",
"                            4 p a 3 1 +                         ",
"                            1 9.X.@.1 #                         ",
"                            1 A B 2 1 #                         ",
"                              @ c r +                           ",
"                              1 v r #                           ",
"                                + #                             "
};
