/* XPM */
static char *b6a548b97dd3473e896bf5c377f8d09fTscrSexVr9TTSYxe[] = {
/* columns rows colors chars-per-pixel */
"32 32 131 2 ",
"   c None",
".  c #000A02",
"X  c #000C01",
"o  c #00060B",
"O  c #0B020C",
"+  c #01011A",
"@  c #01011B",
"#  c #0D0A18",
"$  c #0C1616",
"%  c #0A1219",
"&  c #0A111E",
"*  c #16161B",
"=  c #240507",
"-  c #08270F",
";  c #122516",
":  c #16231F",
">  c #2F271C",
",  c #181721",
"<  c #1C2D24",
"1  c #1E232B",
"2  c #1B2E28",
"3  c #242226",
"4  c #233B34",
"5  c #3E4118",
"6  c #1A4537",
"7  c #1D4D39",
"8  c #2C4324",
"9  c #26442E",
"0  c #324C27",
"q  c #324E2B",
"w  c #37502A",
"e  c #30562C",
"r  c #224C3B",
"t  c #274A3E",
"y  c #2B493F",
"u  c #345931",
"i  c #20653E",
"p  c #3E6B34",
"a  c #74452B",
"s  c #784E28",
"d  c #7C4F29",
"f  c #7E4E29",
"g  c #7E4F2A",
"h  c #7C4B2F",
"j  c #7F5227",
"k  c #755228",
"l  c #75522B",
"z  c #74502D",
"x  c #74522D",
"c  c #40692E",
"v  c #4A6D28",
"b  c #4B6F2A",
"n  c #55762C",
"m  c #4B7131",
"M  c #467D32",
"N  c #2F5F4B",
"B  c #9F5F36",
"V  c #985F38",
"C  c #9D6633",
"Z  c #9A6535",
"A  c #9E663D",
"S  c #996B39",
"D  c #9C6A3D",
"F  c #9F6A3F",
"G  c #98723A",
"H  c #A36030",
"J  c #A26233",
"K  c #B17F41",
"L  c #298131",
"P  c #5E9627",
"I  c #50853A",
"U  c #4AA22C",
"Y  c #56B02B",
"T  c #54B332",
"R  c #73BA2F",
"E  c #78A639",
"W  c #6BC932",
"Q  c #4E9E43",
"!  c #5E984D",
"~  c #719A4B",
"^  c #5EC840",
"/  c #76C643",
"(  c #75CE4A",
")  c #DD9530",
"_  c #E1933B",
"`  c #F1A936",
"'  c #FDAE37",
"]  c #F3B63E",
"[  c #F1BB39",
"{  c #F3B83A",
"}  c #F4B839",
"|  c #F2BD3A",
" . c #F3B83E",
".. c #F1BD3F",
"X. c #9EDC3E",
"o. c #EEC23C",
"O. c #F2C03A",
"+. c #B18146",
"@. c #BB8143",
"#. c #88BE6B",
"$. c #FAB940",
"%. c #FDB840",
"&. c #FDBB42",
"*. c #E6BA65",
"=. c #EABA68",
"-. c #E9BF68",
";. c #EDBD6C",
":. c #80D345",
">. c #90D940",
",. c #B1FC53",
"<. c #90CF65",
"1. c #97DA64",
"2. c #94E766",
"3. c #8CE272",
"4. c #9AE476",
"5. c #FDC947",
"6. c #F3E55F",
"7. c #FEE358",
"8. c #FEE65D",
"9. c #FEE760",
"0. c #FEE761",
"q. c #FEED62",
"w. c #FEE97E",
"e. c #FEEB7F",
"r. c #FEF075",
"t. c #FEF681",
"y. c #FEF1AC",
"u. c #FEFEB0",
"i. c #FEFEB1",
"p. c #FFF9DF",
"a. c #FFFCEA",
/* pixels */
"                                                                ",
"                                                                ",
"                                                                ",
"                                                                ",
"                                                                ",
"                              3 1                               ",
"                            X p.=.X                             ",
"                          > o.j G X                             ",
"                        % 5.w. .l %.=                           ",
"                        o a.i.q.) -.A X                         ",
"                        . i.p.r.{ _ x X                         ",
"                      ; X ' 6.a.K @.a X -                       ",
"                    X E $ ..9.%.s S h ~ ^ X                     ",
"                    X ,.* t.a.` l J D P R X                     ",
"                    X 2.O 7.a.y.O.$.D ~ P X                     ",
"                    X 3.P X 9.w.B } +.X X                       ",
"                    X 4.! X C J { *.X L X                       ",
"                    X 1./ X Z ;.V f X i X                       ",
"                    X <.:.X 8.] f X Y t X                       ",
"                    X #.>.W , | x X T r X                       ",
"                    X m X.( X f X b U N X                       ",
"                    X y I Q n & 5 M p 2 X                       ",
"                    X 2 e c b # q u 4 2 X                       ",
"                      X 2 0 8 w 9 6 2 X                         ",
"                        X 2 : < 2 7 X                           ",
"                          X 2 : : X                             ",
"                            X @ @                               ",
"                                                                ",
"                                                                ",
"                                                                ",
"                                                                ",
"                                                                "
};
