/* XPM */
static char *result[] = {
/* columns rows colors chars-per-pixel */
"32 32 10 1 ",
"  c #995450",
". c #9D6256",
"X c #9F6D5A",
"o c #4B974D",
"O c #4DBC44",
"+ c #4EAB52",
"@ c #A18579",
"# c #C99478",
"$ c #CEB092",
"% c None",
/* pixels */
"%%%%%%%%%%%%%%%%%%%%%%%%%%%%%%%%",
"%%%%%%%%%%%%%%%%%%%%%%%%%%%%%%%%",
"%%%%%%%%%%%%%%%%%%%%%%%%%%%%%%%%",
"%%%%%%%%%%%%%%%%%%%%%%%%%%%%%%%%",
"%%%%%%%%%%%%%@$$%%%%%%%%%%%%%%%%",
"%%%%%%%%%%%%@$$$$%%%%%%%%%%%%%%%",
"%%%%%%%%%%%@@$$$$$%%%%%%%%%%%%%%",
"%%%%%%%%%%%@@$$$$$$%%%%%%%%%%%%%",
"%%%%%%%%%%@@@$$$$$$$%%%%%%%%%%%%",
"%%%%%%%%%%@@@$$$$$$$%%%%%%%%%%%%",
"%%%%%%%%%@@@X$$$$$$$$%%%%%%%%%%%",
"%%%%%%%%%@@XX$$$$$$$$$%%%%%%%%%%",
"%%%%%%%%%@@XXX$$$$$#$$$$%%%%%%%%",
"%%%%%%%%%@XXXX$$$##$$$$$$%%%%%%%",
"%%%%%%%%%XXXX..####$$$$$$%%%%%%%",
"%%%%%%%%%XXX....##$$$$$$#%%%%%%%",
"%%%%%%%%%........#$$$$$##%%%%%%%",
"%%%%%%%%+...OOO...$$#####%%%%%%%",
"%%%%%%%%+ ...OOO.OOOO####+%%%%%%",
"%%%%%%++oo .O.OOoOOO##O##++%%%%%",
"%%%%%+++++ OO..OOOO###OOXo++%%%%",
"%%%%%%%%%++OO.oOOO.X##OO%%%%%%%%",
"%%%%%%%%%%+%O++OOO.XXXO%%%%%%%%%",
"%%%%%%%%%%%%%+OOO+.XX+%%%%%%%%%%",
"%%%%%%%%%%%%%%%%++++++%%%%%%%%%%",
"%%%%%%%%%%%%%%%+++%%+++%%%%%%%%%",
"%%%%%%%%%%%%%%%%%%%%%%++%%%%%%%%",
"%%%%%%%%%%%%%%%%%%%%%%%%%%%%%%%%",
"%%%%%%%%%%%%%%%%%%%%%%%%%%%%%%%%",
"%%%%%%%%%%%%%%%%%%%%%%%%%%%%%%%%",
"%%%%%%%%%%%%%%%%%%%%%%%%%%%%%%%%",
"%%%%%%%%%%%%%%%%%%%%%%%%%%%%%%%%"
};
