/* XPM */
static char *result[] = {
/* columns rows colors chars-per-pixel */
"32 32 2 1 ",
"  c #4DBC44",
". c #79C448",
/* pixels */
"   ...  ..............          ",
"    ... .................       ",
"     .............  ....        ",
"   .........   ....  ..         ",
"    ... ...   ...... .  .     . ",
"     ..  ..  ... .....  ..   .. ",
"      .   .   .  .......... ... ",
"....             ..... .......  ",
"...              ....  .........",
".. ...  ....    ....  ..........",
".....    ....  ..... ........  .",
".. .      .... ........   ..  ..",
".         ..............      ..",
"         ........ .......       ",
"        .........  ......   .   ",
" ...  .....    ... ......   ..  ",
"...    ..     ........ ..   ... ",
"...     .    ........  ....  ...",
"..    .      ..... .. ..........",
"...  ..         .  ...........  ",
"... ...            .....   ..  .",
"........ ...       ......      .",
"...........       ... ....  ....",
"..    ....      .....  ..    ...",
"...    ..   ...  ....         ..",
"....    .  ...    ....         .",
". ...      ..      .          ..",
"  ...      .               .....",
"  ..           ....         ... ",
"  .    ...    ....  ....     .. ",
"        ...  ....  ....       . ",
"         .............          "
};
