/* XPM */
static char *result[] = {
/* columns rows colors chars-per-pixel */
"32 32 199 2 ",
"   c #010001",
".  c #09070C",
"X  c #18040B",
"o  c #160311",
"O  c #1C0513",
"+  c #1D0519",
"@  c #1A0B1C",
"#  c #1A0916",
"$  c #250615",
"%  c #230A1B",
"&  c #2B0A1A",
"*  c #2D0915",
"=  c #2B151A",
"-  c #371219",
";  c #2B070F",
":  c #320F22",
">  c #231225",
",  c #251428",
"<  c #2B162B",
"1  c #2E1929",
"2  c #221A21",
"3  c #3B1222",
"4  c #321C2C",
"5  c #3A1828",
"6  c #391E32",
"7  c #351D33",
"8  c #2B1A32",
"9  c #342A2F",
"0  c #242C30",
"q  c #3B2333",
"w  c #342030",
"e  c #323431",
"r  c #481728",
"t  c #47272C",
"y  c #55232D",
"u  c #5C282E",
"i  c #5C332F",
"p  c #422533",
"a  c #4A2A37",
"s  c #4E2C3A",
"d  c #432B38",
"f  c #522C36",
"g  c #4F353C",
"h  c #5A3637",
"j  c #5A333B",
"k  c #553538",
"l  c #602B2F",
"z  c #642C32",
"x  c #612635",
"c  c #643335",
"v  c #6C3435",
"b  c #68393C",
"n  c #753232",
"m  c #7B3935",
"M  c #723C3C",
"N  c #78383A",
"B  c #1B4E2F",
"V  c #555724",
"C  c #68423F",
"Z  c #74413F",
"A  c #7B433C",
"S  c #7F483F",
"D  c #593742",
"F  c #603E42",
"G  c #306545",
"H  c #397959",
"J  c #2E7864",
"K  c #6C4443",
"L  c #64444D",
"P  c #714342",
"I  c #7B4542",
"U  c #794B49",
"Y  c #7E524A",
"T  c #4D7D5D",
"R  c #567755",
"E  c #777D4B",
"W  c #635F6E",
"Q  c #7E6566",
"!  c #843833",
"~  c #894A3D",
"^  c #8A4B36",
"/  c #934D3C",
"(  c #99483F",
")  c #9B533A",
"_  c #885033",
"`  c #A75A3B",
"'  c #AE6336",
"]  c #B4633E",
"[  c #864441",
"{  c #844C43",
"}  c #934E44",
"|  c #885245",
" . c #925444",
".. c #965D4B",
"X. c #A35A41",
"o. c #9F6448",
"O. c #9C7C40",
"+. c #996150",
"@. c #A46343",
"#. c #AC6544",
"$. c #AE6B4A",
"%. c #A76647",
"&. c #B36647",
"*. c #B46C46",
"=. c #B46C4B",
"-. c #B96D4B",
";. c #B56848",
":. c #A4714E",
">. c #B5734C",
",. c #BA734E",
"<. c #A06554",
"1. c #B26650",
"2. c #B57251",
"3. c #BB7553",
"4. c #BE7953",
"5. c #BC7D59",
"6. c #9E6962",
"7. c #917778",
"8. c #A57069",
"9. c #C0754E",
"0. c #C17753",
"q. c #C17A53",
"w. c #C27D59",
"e. c #C87A52",
"r. c #C27C69",
"t. c #3CA834",
"y. c #4B8829",
"u. c #368346",
"i. c #349142",
"p. c #2E9656",
"a. c #499C48",
"s. c #479D57",
"d. c #66985C",
"f. c #4CA94C",
"g. c #52A848",
"h. c #4AA554",
"j. c #54AA53",
"k. c #57B856",
"l. c #6CBA57",
"z. c #728D64",
"x. c #6EB573",
"c. c #6FCC4D",
"v. c #69C55A",
"b. c #73CF5A",
"n. c #7BD967",
"m. c #929E46",
"M. c #968E51",
"N. c #A19C5A",
"B. c #BE8569",
"V. c #B38972",
"C. c #A6BB67",
"Z. c #C5815B",
"A. c #CB8D66",
"S. c #C98F68",
"D. c #C79468",
"F. c #D29268",
"G. c #D9A279",
"H. c #E5A474",
"J. c #87DB4F",
"K. c #82DA59",
"L. c #9BD05F",
"P. c #8EE15A",
"I. c #9CEC5C",
"U. c #A4F55F",
"Y. c #80CF63",
"T. c #85D67B",
"R. c #8CE369",
"E. c #95E36B",
"W. c #98ED6C",
"Q. c #9AE777",
"!. c #9DF57A",
"~. c #A1F86D",
"^. c #B8F876",
"/. c #B0F570",
"(. c #CAF76F",
"). c #90919A",
"_. c #92879D",
"`. c #EAB486",
"'. c #EBBA89",
"]. c #EABF97",
"[. c #EFBCA2",
"{. c #B5FD86",
"}. c #AFF892",
"|. c #EFC294",
" X c #F3CD9D",
".X c #F5C296",
"XX c #C7FF98",
"oX c #C5F382",
"OX c #F5CDA3",
"+X c #EDD1A1",
"@X c #F3D3A4",
"#X c #FED6AB",
"$X c #F6DAAF",
"%X c #F3D3AA",
"&X c #F5D8B4",
"*X c #CDF3A3",
"=X c #FAE5B3",
"-X c #FAEAC0",
";X c None",
/* pixels */
";X;X;X;X;X;X;X;X;X;X;X;X;X;X;X;X;X;X;X;X;X;X;X;X;X;X;X;X;X;X;X;X",
";X;X;X;X;X;X;X;X;X;X;X;X;X;X;X;X;X;X;X;X;X;X;X;X;X;X;X;X;X;X;X;X",
";X;X;X;X;X;X;X;X;X;X;X;X;X;X;X;X;X;X;X;X;X;X;X;X;X;X;X;X;X;X;X;X",
";X;X;X;X;X;X;X;X;X;X;X;X;X;X;XQ.;X;X;X;X;X;X;X;X;X;X;X;X;X;X;X;X",
";X;X;X;X;X;X;X;X;X;X;XO O X.s./.y.) ~ X X ;X;X;X;X;X;X;X;X;X;X;X",
";X;X;X;X;X;X;X;X;X5 / ` ] ` = t.^.u &.' E.d.u.;X;X;X;X;X;X;X;X;X",
";X;X;X;X;X;X;X;X} R I.9.*.*.-.0 b -.n <.J.R.U.. ;X;X;X;X;X;X;X;X",
";X;X;X;X;X;X*X^ (.l.b.g.i ,.w.3.,.*.,.>.H {.G ) o ;X;X;X;X;X;X;X",
";X;X;X;X;X;X*Xc.j.x.z.e.` A.F.B.`.4.F.3.4...;X;XQ $ ;X;X;X;X;X;X",
";X;X;X;XR u.I.P./.9 9.H.].Z I a { f OX`.w.r._.;X> ) ;XI ;X;X;X;X",
";X;X;X;X;XW.n.k.{.@.,.#.4 o.7 S M | a c OX`.N +  .v c ;X;X;X;X;X",
";X;X;X;XX l./.. b @X@.p 1 Z S < p h s q h =X-.-.=.,.#.% ;X;X;X;X",
";X;X;X- } E.+ &.w.$Xq ..k U 7 w w b < b j Z $X2.2.&.-.v ;X;X;X;X",
";X;X;X7.; * -.#X5.y d 1 d , 2     . d D U K &X0.=.#.$.& ;X;X;X;X",
";X;X;X8.;.z 0.'.@X1 K d ,           < < U % s @X0.c N.A ;X;X;X;X",
";X;X;XX.X.;.2.'.S...~ 1 ,             8 Y - K =.w.~.h.p.B ;X;X;X",
";X;X;X7.a =.,.q.@XY 4 f @             > { 1 D S.- f.f.h.T ;X;X;X",
";X;X;Xl #.'  X+X.X{ F 4 >           @ < p } { w.$.i.!.H ;X;X;X;X",
";X;X;X[ >.M -.*.4.A.s L 4           1 4 M F %X4.4.#.X.J g ;X;X;X",
";X;X;X;X# 3 ;X;XL D.S.U f q @     1 7 j { D.].=.;X;XO n ;X;X;X;X",
";X;X;X;Xo @ ).;XW 3.%XZ A +.q K g  .Z h  .#X2.m.3 + $.o ;X;X;X;X",
";X;X;X;X9 =.o 4 C.r..X-X| B.| c F _ G.[.&XM.V {.L.O.! ;X;X;X;X;X",
";X;X;X;X;Xx >./ {.f.^.:.3.%X$X<.OX$X|.`.>.E ^.T.v.{.x.;X;X;X;X;X",
";X;X;X;X;XO z (.^.k.Y.- 1.2.e.0.q.,.>.V.l.XXa.K.u.O ;X;X;X;X;X;X",
";X;X;X;X;X;XO : t e 9 #.3.2.=.I 2.=.k.Q.h.J.v.H $ + ;X;X;X;X;X;X",
";X;X;X;X;X;X;XO n } ) X.K =.1.2.=.%.& }.E.a.G & ;X;X;X;X;X;X;X;X",
";X;X;X;X;X;X;X;X% o z X.~ / m ~ -.-./ n R.r % p A ;X;X;X;X;X;X;X",
";X;X;X;X;X;X;X;X% ;X$ % y z / m m ! ;X;Xu $ ;X;X;X;X;X;X;X;X;X;X",
";X;X;X;X;X;X;X;X;X;X;X;X;Xk f 6 y 3 $ D ;X;X;X;X;X;X;X;X;X;X;X;X",
";X;X;X;X;X;X;X;X;X;X;X;X;X;X;X;X;X;X;X;X;X;X;X;X;X;X;X;X;X;X;X;X",
";X;X;X;X;X;X;X;X;X;X;X;X;X;X;X;X;X;X;X;X;X;X;X;X;X;X;X;X;X;X;X;X",
";X;X;X;X;X;X;X;X;X;X;X;X;X;X;X;X;X;X;X;X;X;X;X;X;X;X;X;X;X;X;X;X"
};
