/* XPM */
static char *result[] = {
/* columns rows colors chars-per-pixel */
"32 32 6 1 ",
"  c #9F6D5A",
". c #4DBC44",
"X c #4EAB52",
"o c #A18579",
"O c #CEB092",
"+ c None",
/* pixels */
"++++++++++++++++++++++++++++++++",
"++++++++++++++++++++++++++++++++",
"++++++++++++++++++++++++++++++++",
"++++++++++++++++++++++++++++++++",
"++++++++++++++++++++++++++++++++",
"++++++++++++++++++++++++++++++++",
"++++++++++++++++++++++++++++++++",
"++++++++++++++++++++++++++++++++",
"++++++++++++++++++++++++++++++++",
"++++++++++++++++++++++++++++++++",
"++++++++++++++++++++++++++++++++",
"++++++++++++++++++++++++++++++++",
"++++++++++++++++++++++++++++++++",
"++++++++++++++++++++++++++++++++",
"+++++++++++++OOO++++++++++++++++",
"+++++++++++ OOOOOO++++++++++++++",
"++++++++++ OOOOOOOO+++++++++++++",
"+++++++++  OOOOO.OOO++++++++++++",
"+++++++++  OOO.O..OOO+++++++++++",
"++++++++X . O..O...OO+++++++++++",
"+++++++XX ......O...oXX+++++++++",
"++++++++++++....XX..++++++++++++",
"+++++++++++++++++X++++++++++++++",
"++++++++++++++++++++++++++++++++",
"++++++++++++++++++++++++++++++++",
"++++++++++++++++++++++++++++++++",
"++++++++++++++++++++++++++++++++",
"++++++++++++++++++++++++++++++++",
"++++++++++++++++++++++++++++++++",
"++++++++++++++++++++++++++++++++",
"++++++++++++++++++++++++++++++++",
"++++++++++++++++++++++++++++++++"
};
