/* XPM */
static char *result[] = {
/* columns rows colors chars-per-pixel */
"32 32 7 1 ",
"  c black",
". c #353535",
"X c #8C6F87",
"o c gray64",
"O c gray80",
"+ c #ECECEC",
"@ c None",
/* pixels */
"@@@@@@@@@@@@@@@@@@@@@@@@@@@@@@@@",
"@@@@@@@@@@@@@@@@@@@@@@@@@@@@@@@@",
"@@@@@@@@@@@@@@@@@@@@@@@@@@@@@@@@",
"@@@@@@@@@@@@@@@@@@@@@@@@@@@@@@@@",
"@@@@@@@@@@@@@@@@@@@@@@@@@@@@@@@@",
"@@@@@@@@@@@@@@@@@@@@@@@@@@@@@@@@",
"@@@@@@@@@@@@@@@@@@@@@@@@@@@@@@@@",
"@@@@@@@@@@@@@@@@@@@@@@@@@@@@@@@@",
"@@@@@@@@@@@@@@@@@@@@@@@@@@@@@@@@",
"@@@@@@@@@@@@@@@@@@@@@@@@@@@@@@@@",
"@@@@@@@@@@@@@@@@@@@@@@@@@@@@@@@@",
"@@@@@@@@@@@@@@@@@@@@@@@@@@@@@@@@",
"@@@@@@@@@@@@@@@@@@@@@@@@@@@@@@@@",
"@@@@@@@@@@@@@@@@@@@@@@@@@@@@@@@@",
"@@@@@@@@@.@.@@@@@@@@@@@@@@@@@@@@",
"@@@@@@@@.X.X.@@@@@@@@@@@@@@@@@@@",
"@@@@@@@.X..X.@@@@@@@@@@@@@@@@@@@",
"@@@@@@@.X.XX.@@@@@@@@@@@@@@@@@@@",
"@@@@@@@.X.X.@@@@@@@@@@@@@@@@@@@@",
"@@@@@@@...X.@@@@@@.....@@@@@@@@@",
"@@@@@....X.@@@@O..........@@o@@@",
"@@@@.......OOOOOO..........ooo@@",
"@@@OO +....OOOOOOO.........ooo@@",
"@@@OO  .....OOOOOOO........oo@@@",
"@@@OOOO...OOOOOOOOO........@@@@@",
"@@@@OOOO..oOOOOOOOOO......@@@@@@",
"@@@@@OOOOooooOOOOOOOO.....@@@@@@",
"@@@@@@@@@@@@@oooOOOOOO....@@@@@@",
"@@@@@@@@@@@@@@ooOOOOOO...@@@@@@@",
"@@@@@@@@@@@@@@ooOOOOOO.@@@@@@@@@",
"@@@@@@@@@@@@@@ooO@OOOO@@@@@@@@@@",
"@@@@@@@@@@@@@ooo@@@@@@@@@@@@@@@@"
};
