/* XPM */
static char *result[] = {
/* columns rows colors chars-per-pixel */
"32 32 7 1 ",
"  c black",
". c #353535",
"X c #8C6F87",
"o c gray64",
"O c gray80",
"+ c #ECECEC",
"@ c None",
/* pixels */
"@@@@@@@@@@@@@@@@@@@@@@@@@@@@@@@@",
"@@@@@@@@@@@@@@@@@@@@@@@@@@@@@@@@",
"@@@@@@@@@@@@@@@@@@@@@@@@@@@@@@@@",
"@@@@@@@@@@@@@@@@@@@@@@@@@@@@@@@@",
"@@@@@@@@@@@@@@@@@@@@@@@@@@@@@@@@",
"@@@@@@@@@@@@@@@@@@@@@@@@@@@@@@@@",
"@@@@@@@@@@@@@@@@@@@@@@@@@@@@@@@@",
"@@@@@@@@@@@@@@@@@@@@@@@@@@@@@@@@",
"@@@@@@@@@@@@@@@@@@@@@@@@@@@@@@@@",
"@@@@@@@@@@@@@@@@@@@@@@@@@@@@@@@@",
"@@@@@@.@.@@@@@@@@@@@@@@@@@@@@@@@",
"@@@@@.X.X.@@@@@@@@@@@@@@@@@@@@@@",
"@@@@.X..X.@@@@@@@@@@@@@@@@@@@@@@",
"@@@@.X.XX.@@@@@@@@@@@@ooo@@@@@@@",
"@@@@.X.X.@@@@@@@.....@@ooo@@@@@@",
"@@@@...X.@@@@@.........ooo@@@@@@",
"@@....X.@@@@............oo@@@@@@",
"@.......OOOO.............@@@@@@@",
"OO +....OOOOOOOOOOOO......@@@@@@",
"OO  .....OOOOOOOOOOOOOO....@@@@@",
"OOOO...OOOOOOOOOOOOOOOOOOOOO@@@@",
"OOOOO..OOOOOOOOOOOooOOOOOOOO@@@@",
"@OOOOOOOOOOOOOOooo@@ooooo@OOO@@@",
"@@@@@ooOOOOOOooo@@@@@@@@@@@OOO@@",
"@@@@ooooOOooo@@@@@@@@@@@@@@@OO@@",
"@@@oooo@OO@@@@@@@@@@@@@@@@@@@O@@",
"@@ooo@@OOO@@@@@@@@@@@@@@@@@@@@@@",
"@ooo@@@OO@@@@@@@@@@@@@@@@@@@@@@@",
"@@@@@@OOO@@@@@@@@@@@@@@@@@@@@@@@",
"@@@@@OOO@@@@@@@@@@@@@@@@@@@@@@@@",
"@@@@@@@@@@@@@@@@@@@@@@@@@@@@@@@@",
"@@@@@@@@@@@@@@@@@@@@@@@@@@@@@@@@"
};
