/* XPM */
static char *result[] = {
/* columns rows colors chars-per-pixel */
"32 32 7 1 ",
"  c black",
". c #353535",
"X c #8C6F87",
"o c gray64",
"O c gray80",
"+ c #ECECEC",
"@ c None",
/* pixels */
"@@@@@@@@@@@@@@@@@@@@@@@@@@@@@@@@",
"@@@@@@@@@@@@@@@@@@@@@@@@@@@@@@@@",
"@@@@@@@@@@@@@@@@@@@@@@@@@@@@@@@@",
"@@@@@@@@@@@@@@@@@@@@@@@@@@@@@@@@",
"@@@@@@@@@@@@@@@@@@@@@@@@@@@@@@@@",
"@@@@@@@@@@@@@@@@@@@@@@@@@@@@@@@@",
"@@@@@@@@@@@@@@@@@@@@@@@@@@@@@@@@",
"@@@@@@@@@@@@@@@@@@@@@@@@@@@@@@@@",
"@@@@@@@@@@@@@@@@@@@@@@@@@@@@@@@@",
"@@@@@@@@@@@@@@@@@@@@@@@@@@@@@@@@",
"@@@@@@@@@@@@@@@@@@@@@@@@@@@@@@@@",
"@@@@@@@@@@@@@@@@@@@@@@@@@@@@@@@@",
"@@@@@@@@@@@@@@@@@@@@@@@@@@@@@@@@",
"@@@@@@@@@@@@@@@@@@@@@@@@@@@@@@@@",
"@@@@@@.@.@@@@@@@@@@@@@@@ooo@@@@@",
"@@@@@.X.X.@@@@@@@@@@...@@ooo@@@@",
"@@@@.X..X.@@@@@@@........ooo@@@@",
"@@@@.X.XX.@@@@@...........oo@@@@",
"@@@@.X.X.@@@@.............o@@@@@",
"@@@@...X.@@@OOOOOOO........@@@@@",
"@@....X.@@OOOOOOOOOOO......@@@@@",
"@.......OOOOOOOOOOOOOOOO....@@@@",
"OO +....OOOOOOOOOOOOOOOOOOOO@@@@",
"OO  .....OOOOOOOOOOooOOOOOOOOO@@",
"OOOO...OOOOOOOOOOo@@@@@OOOOOOOO@",
"@OOOO..oOOOOOOOooo@@@@@@@OOOOOOO",
"@@OOOOooooo@OOOo@@@@@@@@@@@@@@OO",
"@@@@@@@ooo@@@OOO@@@@@@@@@@@@@@@O",
"@@@@@@ooo@@@@OOO@@@@@@@@@@@@@@@@",
"@@@@@ooo@@@@@OOO@@@@@@@@@@@@@@@@",
"@@@@ooo@@@@@@OO@@@@@@@@@@@@@@@@@",
"@@@@@@@@@@@@@@@@@@@@@@@@@@@@@@@@"
};
