/* XPM */
static char *result[] = {
/* columns rows colors chars-per-pixel */
"32 32 7 1 ",
"  c black",
". c #353535",
"X c #8C6F87",
"o c gray64",
"O c gray80",
"+ c #ECECEC",
"@ c None",
/* pixels */
"@@@@@@@@@@@@@@@@@@@@@@@@@@@@@@@@",
"@@@@@@@@@@@@@@@@@@@@@@@@@@@@@@@@",
"@@@@@@@@@@@@@@@@@@@@@@@@@@@@@@@@",
"@@@@@@@@@@@@@@@@@@@@@@@@@@@@@@@@",
"@@@@@@@@@@@@@@@@@@@@@@@@@@@@@@@@",
"@@@@@@@@@@@@@@@@@@@@@@@@@@@@@@@@",
"@@@@@@@@@@@@@@@@@@@@@@@@@@@@@@@@",
"@@@@@@@@@@@@@@@@@@@@@@@@@@@@@@@@",
"@@@@@@@@@@@@@@@@@@@@@@@@@@@@@@@@",
"@@@@@@@@@@@@@@@@@@@@@@@@@@@@@@@@",
"@@@@@@@@@@@@@@@@@@@@@@@@@@@@@@@@",
"@@@@@@@@@@@@@@@@@@@@@@@@@@@@@@@@",
"@@@@@@@@@@@@@@@@@@@@@@@@@@@@@@@@",
"@@@@@@@@@@@@@@@@@@@@@@@@@@@@@@@@",
"@@@@@@@@@@@@@@@@@@@@@@@@@@@@@@@@",
"@@@@@@@@@@@@@@@@@@@@@@@ooo@@@@@@",
"@@@@@@@@.@.@@@@@@@@@@@@@ooo@@@@@",
"@@@@@@@.X.X.@@@@@@......ooo@@@@@",
"@@@@@@.X..X.@@@@@........oo@@@@@",
"@@@@@@.X.XX.@@@@.........o@@@@@@",
"@@@@@@.X.X.@@@@...........@@@@@@",
"@@@@@@...X.@@..............@@@@@",
"@@@@....X.@OOOOOOOOOO......@@@@@",
"@@@.......OOOOOOOOOOOOO....@@@@@",
"@@OO +....OOOOOOOOOOOOOOO.@@@@@@",
"@@OO  .....OOOOOOOOOOOOOO@@@@@@@",
"@@OOOO...OOOOOOOOOOOOOOO@@@@@@@@",
"@@@OOOO..oOOOOOOOOooooOO@@@@@@@@",
"@@@@OOOOooooOOOOOooooOOO@@@@@@@@",
"@@@@@@@@@@oooooOOoooOOO@@@@@@@@@",
"@@@@@@@@@@@ooo@OOOoOOO@@@@@@@@@@",
"@@@@@@@@@@ooo@@@@@OOO@@@@@@@@@@@"
};
